<svg width="234" height="31" viewBox="0 0 234 31" fill="none" xmlns="http://www.w3.org/2000/svg">
<path d="M49.278 25H43.1565V6.09091H49.4719C51.3246 6.09091 52.9157 6.46946 54.2453 7.22656C55.5748 7.97751 56.5935 9.05776 57.3014 10.4673C58.0154 11.8707 58.3724 13.5542 58.3724 15.5178C58.3724 17.4875 58.0123 19.1802 57.2922 20.5959C56.5782 22.0116 55.5441 23.1011 54.1899 23.8643C52.8357 24.6214 51.1984 25 49.278 25ZM46.0095 22.5071H49.121C50.5613 22.5071 51.7586 22.2363 52.7126 21.6946C53.6667 21.1468 54.3807 20.3558 54.8547 19.3217C55.3286 18.2815 55.5656 17.0135 55.5656 15.5178C55.5656 14.0343 55.3286 12.7756 54.8547 11.7415C54.3869 10.7074 53.6882 9.92258 52.7588 9.38707C51.8293 8.85156 50.6752 8.58381 49.2964 8.58381H46.0095V22.5071ZM67.8108 25.2862C66.4136 25.2862 65.2102 24.9877 64.2007 24.3906C63.1974 23.7874 62.4218 22.9411 61.874 21.8516C61.3324 20.7559 61.0615 19.4725 61.0615 18.0014C61.0615 16.5488 61.3324 15.2685 61.874 14.1605C62.4218 13.0526 63.1851 12.1877 64.1638 11.5661C65.1486 10.9444 66.2997 10.6335 67.6169 10.6335C68.4171 10.6335 69.1927 10.7659 69.9436 11.0305C70.6946 11.2952 71.3686 11.7107 71.9656 12.277C72.5627 12.8433 73.0336 13.5788 73.3783 14.4837C73.723 15.3823 73.8953 16.4749 73.8953 17.7614V18.7401H62.6219V16.6719H71.1901C71.1901 15.9455 71.0423 15.3023 70.7469 14.7422C70.4514 14.1759 70.036 13.7296 69.5004 13.4034C68.9711 13.0772 68.3494 12.9141 67.6354 12.9141C66.8598 12.9141 66.1827 13.1049 65.6041 13.4865C65.0317 13.862 64.5885 14.3544 64.2746 14.9638C63.9668 15.567 63.8129 16.2225 63.8129 16.9304V18.5462C63.8129 19.4941 63.9791 20.3004 64.3115 20.9652C64.6501 21.63 65.1209 22.1378 65.7242 22.4886C66.3274 22.8333 67.0322 23.0057 67.8385 23.0057C68.3617 23.0057 68.8387 22.9318 69.2696 22.7841C69.7005 22.6302 70.0729 22.4025 70.3868 22.1009C70.7007 21.7992 70.9408 21.4268 71.107 20.9837L73.7199 21.4545C73.5106 22.224 73.1352 22.898 72.5935 23.4766C72.058 24.049 71.384 24.4953 70.5715 24.8153C69.7651 25.1293 68.8449 25.2862 67.8108 25.2862ZM79.719 6.09091V25H76.9584V6.09091H79.719ZM83.433 25V10.8182H86.1936V25H83.433ZM83.6915 8.92543L85.852 4.66903H88.7604L85.8982 8.92543H83.6915ZM95.8813 25.2862C94.5087 25.2862 93.3269 24.9754 92.3358 24.3537C91.351 23.7259 90.5939 22.861 90.0645 21.7592C89.5352 20.6574 89.2705 19.3956 89.2705 17.9737C89.2705 16.5334 89.5413 15.2623 90.083 14.1605C90.6247 13.0526 91.3879 12.1877 92.3728 11.5661C93.3576 10.9444 94.5179 10.6335 95.8536 10.6335C96.9308 10.6335 97.891 10.8336 98.7343 11.2337C99.5776 11.6276 100.258 12.1816 100.775 12.8956C101.298 13.6096 101.609 14.4437 101.707 15.3977H99.0205C98.8728 14.733 98.5342 14.1605 98.0049 13.6804C97.4817 13.2003 96.78 12.9602 95.8998 12.9602C95.1304 12.9602 94.4564 13.1634 93.8778 13.5696C93.3053 13.9697 92.859 14.5421 92.539 15.2869C92.2189 16.0256 92.0589 16.8996 92.0589 17.9091C92.0589 18.9432 92.2158 19.8357 92.5297 20.5866C92.8437 21.3376 93.2868 21.9193 93.8593 22.3317C94.4379 22.7441 95.118 22.9503 95.8998 22.9503C96.423 22.9503 96.8969 22.8549 97.3216 22.6641C97.7525 22.4671 98.1126 22.187 98.4019 21.8239C98.6974 21.4607 98.9036 21.0237 99.0205 20.5128H101.707C101.609 21.4299 101.31 22.2486 100.812 22.9688C100.313 23.6889 99.6453 24.2552 98.8082 24.6676C97.9772 25.08 97.0016 25.2862 95.8813 25.2862ZM104.66 25V10.8182H107.42V25H104.66ZM106.054 8.62997C105.574 8.62997 105.161 8.46993 104.816 8.14986C104.478 7.82363 104.309 7.43584 104.309 6.9865C104.309 6.53101 104.478 6.14323 104.816 5.82315C105.161 5.49692 105.574 5.33381 106.054 5.33381C106.534 5.33381 106.943 5.49692 107.282 5.82315C107.626 6.14323 107.799 6.53101 107.799 6.9865C107.799 7.43584 107.626 7.82363 107.282 8.14986C106.943 8.46993 106.534 8.62997 106.054 8.62997ZM115.261 25.3139C114.363 25.3139 113.55 25.1477 112.824 24.8153C112.097 24.4768 111.522 23.9875 111.097 23.3473C110.679 22.7071 110.469 21.9223 110.469 20.9929C110.469 20.1927 110.623 19.5341 110.931 19.017C111.239 18.5 111.654 18.0907 112.177 17.7891C112.701 17.4875 113.285 17.2597 113.932 17.1058C114.578 16.9519 115.237 16.835 115.908 16.755C116.757 16.6565 117.446 16.5765 117.976 16.5149C118.505 16.4472 118.89 16.3395 119.13 16.1918C119.37 16.044 119.49 15.804 119.49 15.4716V15.407C119.49 14.6006 119.262 13.9759 118.807 13.5327C118.357 13.0895 117.686 12.8679 116.794 12.8679C115.864 12.8679 115.132 13.0741 114.597 13.4865C114.067 13.8928 113.701 14.3452 113.498 14.8438L110.903 14.2528C111.211 13.3911 111.66 12.6955 112.251 12.1662C112.848 11.6307 113.535 11.2429 114.31 11.0028C115.086 10.7566 115.901 10.6335 116.757 10.6335C117.323 10.6335 117.923 10.7012 118.557 10.8366C119.198 10.9659 119.795 11.206 120.349 11.5568C120.909 11.9077 121.367 12.4093 121.724 13.0618C122.081 13.7081 122.26 14.5483 122.26 15.5824V25H119.564V23.0611H119.453C119.275 23.4181 119.007 23.7689 118.65 24.1136C118.293 24.4583 117.834 24.7446 117.274 24.9723C116.714 25.2 116.043 25.3139 115.261 25.3139ZM115.861 23.098C116.625 23.098 117.277 22.9472 117.819 22.6456C118.367 22.344 118.782 21.95 119.065 21.4638C119.355 20.9714 119.499 20.4451 119.499 19.8849V18.0568C119.401 18.1553 119.21 18.2476 118.927 18.3338C118.65 18.4138 118.333 18.4846 117.976 18.5462C117.619 18.6016 117.271 18.6539 116.932 18.7031C116.594 18.7462 116.311 18.7831 116.083 18.8139C115.547 18.8816 115.058 18.9955 114.615 19.1555C114.178 19.3156 113.827 19.5464 113.562 19.848C113.304 20.1435 113.175 20.5374 113.175 21.0298C113.175 21.7131 113.427 22.2301 113.932 22.581C114.436 22.9257 115.08 23.098 115.861 23.098ZM136.564 14.2805L134.062 14.7237C133.957 14.4036 133.791 14.099 133.563 13.8097C133.342 13.5204 133.04 13.2834 132.658 13.0987C132.277 12.9141 131.8 12.8217 131.227 12.8217C130.446 12.8217 129.793 12.9972 129.27 13.348C128.747 13.6927 128.485 14.139 128.485 14.6868C128.485 15.1607 128.661 15.5424 129.011 15.8317C129.362 16.121 129.929 16.358 130.71 16.5426L132.963 17.0597C134.268 17.3613 135.241 17.826 135.881 18.4538C136.521 19.0817 136.841 19.8973 136.841 20.9006C136.841 21.75 136.595 22.5071 136.102 23.1719C135.616 23.8305 134.936 24.3475 134.062 24.723C133.194 25.0985 132.188 25.2862 131.043 25.2862C129.455 25.2862 128.159 24.9477 127.156 24.2706C126.152 23.5874 125.537 22.6179 125.309 21.3622L127.977 20.956C128.144 21.6515 128.485 22.1778 129.002 22.5348C129.519 22.8857 130.193 23.0611 131.024 23.0611C131.929 23.0611 132.652 22.8733 133.194 22.4979C133.736 22.1162 134.006 21.6515 134.006 21.1037C134.006 20.6605 133.84 20.2881 133.508 19.9865C133.182 19.6849 132.68 19.4571 132.003 19.3033L129.602 18.777C128.279 18.4754 127.3 17.9953 126.666 17.3366C126.038 16.678 125.725 15.844 125.725 14.8345C125.725 13.9974 125.958 13.2649 126.426 12.6371C126.894 12.0092 127.54 11.5199 128.365 11.169C129.19 10.812 130.135 10.6335 131.2 10.6335C132.732 10.6335 133.939 10.9659 134.819 11.6307C135.699 12.2893 136.281 13.1726 136.564 14.2805ZM150.884 25.3139C149.986 25.3139 149.173 25.1477 148.447 24.8153C147.72 24.4768 147.145 23.9875 146.72 23.3473C146.302 22.7071 146.092 21.9223 146.092 20.9929C146.092 20.1927 146.246 19.5341 146.554 19.017C146.862 18.5 147.277 18.0907 147.801 17.7891C148.324 17.4875 148.908 17.2597 149.555 17.1058C150.201 16.9519 150.86 16.835 151.531 16.755C152.38 16.6565 153.069 16.5765 153.599 16.5149C154.128 16.4472 154.513 16.3395 154.753 16.1918C154.993 16.044 155.113 15.804 155.113 15.4716V15.407C155.113 14.6006 154.885 13.9759 154.43 13.5327C153.98 13.0895 153.31 12.8679 152.417 12.8679C151.488 12.8679 150.755 13.0741 150.22 13.4865C149.69 13.8928 149.324 14.3452 149.121 14.8438L146.526 14.2528C146.834 13.3911 147.283 12.6955 147.874 12.1662C148.471 11.6307 149.158 11.2429 149.933 11.0028C150.709 10.7566 151.524 10.6335 152.38 10.6335C152.946 10.6335 153.546 10.7012 154.18 10.8366C154.821 10.9659 155.418 11.206 155.972 11.5568C156.532 11.9077 156.99 12.4093 157.347 13.0618C157.704 13.7081 157.883 14.5483 157.883 15.5824V25H155.187V23.0611H155.076C154.898 23.4181 154.63 23.7689 154.273 24.1136C153.916 24.4583 153.457 24.7446 152.897 24.9723C152.337 25.2 151.666 25.3139 150.884 25.3139ZM151.484 23.098C152.248 23.098 152.9 22.9472 153.442 22.6456C153.99 22.344 154.405 21.95 154.688 21.4638C154.978 20.9714 155.122 20.4451 155.122 19.8849V18.0568C155.024 18.1553 154.833 18.2476 154.55 18.3338C154.273 18.4138 153.956 18.4846 153.599 18.5462C153.242 18.6016 152.894 18.6539 152.555 18.7031C152.217 18.7462 151.934 18.7831 151.706 18.8139C151.171 18.8816 150.681 18.9955 150.238 19.1555C149.801 19.3156 149.45 19.5464 149.185 19.848C148.927 20.1435 148.798 20.5374 148.798 21.0298C148.798 21.7131 149.05 22.2301 149.555 22.581C150.06 22.9257 150.703 23.098 151.484 23.098ZM151.448 8.92543L148.595 4.66903H151.503L153.654 8.92543H151.448ZM168.662 6.09091H172.125L178.145 20.7898H178.366L184.386 6.09091H187.848V25H185.134V11.3168H184.959L179.382 24.9723H177.129L171.552 11.3075H171.377V25H168.662V6.09091ZM197.887 25.2862C196.49 25.2862 195.286 24.9877 194.277 24.3906C193.274 23.7874 192.498 22.9411 191.95 21.8516C191.409 20.7559 191.138 19.4725 191.138 18.0014C191.138 16.5488 191.409 15.2685 191.95 14.1605C192.498 13.0526 193.261 12.1877 194.24 11.5661C195.225 10.9444 196.376 10.6335 197.693 10.6335C198.493 10.6335 199.269 10.7659 200.02 11.0305C200.771 11.2952 201.445 11.7107 202.042 12.277C202.639 12.8433 203.11 13.5788 203.454 14.4837C203.799 15.3823 203.972 16.4749 203.972 17.7614V18.7401H192.698V16.6719H201.266C201.266 15.9455 201.119 15.3023 200.823 14.7422C200.528 14.1759 200.112 13.7296 199.577 13.4034C199.047 13.0772 198.426 12.9141 197.712 12.9141C196.936 12.9141 196.259 13.1049 195.68 13.4865C195.108 13.862 194.665 14.3544 194.351 14.9638C194.043 15.567 193.889 16.2225 193.889 16.9304V18.5462C193.889 19.4941 194.055 20.3004 194.388 20.9652C194.726 21.63 195.197 22.1378 195.8 22.4886C196.404 22.8333 197.108 23.0057 197.915 23.0057C198.438 23.0057 198.915 22.9318 199.346 22.7841C199.777 22.6302 200.149 22.4025 200.463 22.1009C200.777 21.7992 201.017 21.4268 201.183 20.9837L203.796 21.4545C203.587 22.224 203.211 22.898 202.67 23.4766C202.134 24.049 201.46 24.4953 200.648 24.8153C199.841 25.1293 198.921 25.2862 197.887 25.2862ZM217.662 14.2805L215.16 14.7237C215.055 14.4036 214.889 14.099 214.661 13.8097C214.439 13.5204 214.138 13.2834 213.756 13.0987C213.374 12.9141 212.897 12.8217 212.325 12.8217C211.543 12.8217 210.891 12.9972 210.368 13.348C209.844 13.6927 209.583 14.139 209.583 14.6868C209.583 15.1607 209.758 15.5424 210.109 15.8317C210.46 16.121 211.026 16.358 211.808 16.5426L214.061 17.0597C215.366 17.3613 216.338 17.826 216.978 18.4538C217.619 19.0817 217.939 19.8973 217.939 20.9006C217.939 21.75 217.692 22.5071 217.2 23.1719C216.714 23.8305 216.034 24.3475 215.16 24.723C214.292 25.0985 213.285 25.2862 212.14 25.2862C210.552 25.2862 209.257 24.9477 208.253 24.2706C207.25 23.5874 206.634 22.6179 206.407 21.3622L209.075 20.956C209.241 21.6515 209.583 22.1778 210.1 22.5348C210.617 22.8857 211.291 23.0611 212.122 23.0611C213.027 23.0611 213.75 22.8733 214.292 22.4979C214.833 22.1162 215.104 21.6515 215.104 21.1037C215.104 20.6605 214.938 20.2881 214.606 19.9865C214.279 19.6849 213.778 19.4571 213.101 19.3033L210.7 18.777C209.377 18.4754 208.398 17.9953 207.764 17.3366C207.136 16.678 206.822 15.844 206.822 14.8345C206.822 13.9974 207.056 13.2649 207.524 12.6371C207.992 12.0092 208.638 11.5199 209.463 11.169C210.288 10.812 211.232 10.6335 212.297 10.6335C213.83 10.6335 215.036 10.9659 215.917 11.6307C216.797 12.2893 217.379 13.1726 217.662 14.2805ZM225.101 25.3139C224.202 25.3139 223.39 25.1477 222.664 24.8153C221.937 24.4768 221.362 23.9875 220.937 23.3473C220.518 22.7071 220.309 21.9223 220.309 20.9929C220.309 20.1927 220.463 19.5341 220.771 19.017C221.079 18.5 221.494 18.0907 222.017 17.7891C222.541 17.4875 223.125 17.2597 223.772 17.1058C224.418 16.9519 225.076 16.835 225.747 16.755C226.597 16.6565 227.286 16.5765 227.816 16.5149C228.345 16.4472 228.73 16.3395 228.97 16.1918C229.21 16.044 229.33 15.804 229.33 15.4716V15.407C229.33 14.6006 229.102 13.9759 228.647 13.5327C228.197 13.0895 227.526 12.8679 226.634 12.8679C225.704 12.8679 224.972 13.0741 224.436 13.4865C223.907 13.8928 223.541 14.3452 223.338 14.8438L220.743 14.2528C221.051 13.3911 221.5 12.6955 222.091 12.1662C222.688 11.6307 223.375 11.2429 224.15 11.0028C224.926 10.7566 225.741 10.6335 226.597 10.6335C227.163 10.6335 227.763 10.7012 228.397 10.8366C229.037 10.9659 229.634 11.206 230.188 11.5568C230.749 11.9077 231.207 12.4093 231.564 13.0618C231.921 13.7081 232.1 14.5483 232.1 15.5824V25H229.404V23.0611H229.293C229.114 23.4181 228.847 23.7689 228.49 24.1136C228.133 24.4583 227.674 24.7446 227.114 24.9723C226.554 25.2 225.883 25.3139 225.101 25.3139ZM225.701 23.098C226.465 23.098 227.117 22.9472 227.659 22.6456C228.206 22.344 228.622 21.95 228.905 21.4638C229.194 20.9714 229.339 20.4451 229.339 19.8849V18.0568C229.241 18.1553 229.05 18.2476 228.767 18.3338C228.49 18.4138 228.173 18.4846 227.816 18.5462C227.459 18.6016 227.111 18.6539 226.772 18.7031C226.434 18.7462 226.151 18.7831 225.923 18.8139C225.387 18.8816 224.898 18.9955 224.455 19.1555C224.018 19.3156 223.667 19.5464 223.402 19.848C223.144 20.1435 223.014 20.5374 223.014 21.0298C223.014 21.7131 223.267 22.2301 223.772 22.581C224.276 22.9257 224.92 23.098 225.701 23.098Z" fill="#2C2B2B"/>
<path d="M7 7V3C7 2.73478 7.10536 2.48043 7.29289 2.29289C7.48043 2.10536 7.73478 2 8 2C8.26522 2 8.51957 2.10536 8.70711 2.29289C8.89464 2.48043 9 2.73478 9 3V7C9 7.26522 8.89464 7.51957 8.70711 7.70711C8.51957 7.89464 8.26522 8 8 8C7.73478 8 7.48043 7.89464 7.29289 7.70711C7.10536 7.51957 7 7.26522 7 7ZM12 8C12.2652 8 12.5196 7.89464 12.7071 7.70711C12.8946 7.51957 13 7.26522 13 7V3C13 2.73478 12.8946 2.48043 12.7071 2.29289C12.5196 2.10536 12.2652 2 12 2C11.7348 2 11.4804 2.10536 11.2929 2.29289C11.1054 2.48043 11 2.73478 11 3V7C11 7.26522 11.1054 7.51957 11.2929 7.70711C11.4804 7.89464 11.7348 8 12 8ZM16 8C16.2652 8 16.5196 7.89464 16.7071 7.70711C16.8946 7.51957 17 7.26522 17 7V3C17 2.73478 16.8946 2.48043 16.7071 2.29289C16.5196 2.10536 16.2652 2 16 2C15.7348 2 15.4804 2.10536 15.2929 2.29289C15.1054 2.48043 15 2.73478 15 3V7C15 7.26522 15.1054 7.51957 15.2929 7.70711C15.4804 7.89464 15.7348 8 16 8ZM28 15V16C27.9996 17.2719 27.5145 18.4959 26.6434 19.4227C25.7723 20.3496 24.5807 20.9096 23.3113 20.9888C22.6291 22.9182 21.4678 24.6426 19.9363 26H23C23.2652 26 23.5196 26.1054 23.7071 26.2929C23.8946 26.4804 24 26.7348 24 27C24 27.2652 23.8946 27.5196 23.7071 27.7071C23.5196 27.8946 23.2652 28 23 28H1C0.734784 28 0.48043 27.8946 0.292893 27.7071C0.105357 27.5196 0 27.2652 0 27C0 26.7348 0.105357 26.4804 0.292893 26.2929C0.48043 26.1054 0.734784 26 1 26H4.0675C2.79163 24.8728 1.76937 23.4878 1.06822 21.9364C0.367076 20.385 0.00298857 18.7025 0 17V11C0 10.7348 0.105357 10.4804 0.292893 10.2929C0.48043 10.1054 0.734784 10 1 10H23C24.3261 10 25.5979 10.5268 26.5355 11.4645C27.4732 12.4021 28 13.6739 28 15ZM22 12H2V17C2.00386 18.8776 2.53447 20.7164 3.5315 22.3075C4.52853 23.8985 5.95199 25.1778 7.64 26H16.36C18.048 25.1778 19.4715 23.8985 20.4685 22.3075C21.4655 20.7164 21.9961 18.8776 22 17V12ZM26 15C25.9998 14.3798 25.8074 13.7749 25.4492 13.2685C25.0911 12.7621 24.5848 12.3792 24 12.1725V17C23.9993 17.628 23.9491 18.2549 23.85 18.875C24.4705 18.6917 25.015 18.3127 25.4025 17.7946C25.79 17.2765 25.9996 16.647 26 16V15Z" fill="#2C2B2B"/>
</svg>
